<svg id="Capa_1" enable-background="new 0 0 511.803 511.803" height="512" viewBox="0 0 511.803 511.803" width="512" xmlns="http://www.w3.org/2000/svg"><path d="m212.242 244.563c.507-.266.976-.59 1.404-.959 30.399-21.009 50.36-56.096 50.36-95.763 0-64.148-52.188-116.336-116.337-116.336-64.147 0-116.336 52.188-116.336 116.336 0 6.505.55 13.06 1.634 19.483.689 4.084 4.563 6.837 8.644 6.147 4.085-.689 6.837-4.56 6.147-8.644-.945-5.601-1.425-11.315-1.425-16.986 0-30.728 13.75-58.301 35.417-76.901-5.689 10.548-8.925 22.606-8.925 35.408v71.102c0 14.415 4.937 28.071 14.005 39.042-2.117 2.476-3.889 5.233-5.261 8.203-9.55-8.225-17.644-18.304-23.721-29.905-1.922-3.669-6.455-5.085-10.124-3.163s-5.085 6.455-3.163 10.124c20.172 38.506 59.681 62.427 103.108 62.427 23.873-.001 46.086-7.233 64.573-19.615zm-4.729-138.215v14.849c0 4.142 3.357 7.5 7.5 7.5s7.5-3.358 7.5-7.5v-14.849c0-12.802-3.236-24.86-8.925-35.408 21.668 18.599 35.418 46.174 35.418 76.901 0 30.913-13.918 58.632-35.812 77.234-1.314-2.943-3.012-5.684-5.056-8.154 9.299-11.044 14.375-24.865 14.375-39.472v-25.821c0-4.142-3.357-7.5-7.5-7.5s-7.5 3.358-7.5 7.5v25.821c0 11.201-3.952 21.788-11.174 30.191-.649-.319-1.304-.629-1.977-.911l-23.879-10.016c.256-1.391.397-2.821.397-4.285v-5.605c16.614-8.207 28.071-25.324 28.071-45.073v-42.388c0-6.332-5.151-11.482-11.482-11.482h-11.349l-6.404-7.704c-2-2.407-4.971-3.75-8.072-3.717-3.131.045-6.033 1.485-7.964 3.951l-5.849 7.47h-37.889c-6.332 0-11.483 5.151-11.483 11.482v42.387c0 18.604 10.171 34.867 25.237 43.552v7.127c0 1.464.141 2.894.397 4.285l-23.879 10.016c-.487.204-.957.435-1.432.659-7.087-8.365-10.958-18.852-10.958-29.939v-71.102c0-32.998 26.846-59.843 59.844-59.843s59.845 26.846 59.845 59.844zm-58.808 70.648c-19.435 0-35.246-15.812-35.246-35.246v-38.87h38.025c2.306 0 4.483-1.061 5.905-2.876l4.512-5.763 4.934 5.935c1.426 1.714 3.539 2.705 5.768 2.705h11.349v38.87c-.001 19.433-15.812 35.245-35.247 35.245zm-10.009 15.432v-1.437c3.236.657 6.582 1.004 10.009 1.004 2.437 0 4.83-.184 7.175-.521v.953c0 4.737-3.854 8.591-8.592 8.591s-8.592-3.852-8.592-8.59zm-32.678 28.133 25.429-10.666c4.19 3.804 9.75 6.125 15.842 6.125s11.651-2.321 15.842-6.125l25.43 10.667c6.005 2.518 10.356 7.567 12.018 13.673-15.41 9.472-33.531 14.942-52.908 14.942-19.352 0-37.804-5.465-53.573-15.284 1.735-5.951 6.051-10.871 11.92-13.332z"/><path d="m419.687 327.4c-18.473 0-35.689 5.47-50.125 14.869l-103.676-106.03c18.488-24.662 29.452-55.273 29.452-88.398 0-81.425-66.244-147.669-147.67-147.669-81.424-.001-147.668 66.244-147.668 147.669 0 78.91 62.215 143.562 140.169 147.48v32.386c-47.298 3.83-84.615 43.541-84.615 91.809 0 50.793 41.322 92.116 92.115 92.116 48.268 0 87.98-37.318 91.81-84.616h88.399c3.83 47.298 43.541 84.616 91.809 84.616 50.793 0 92.116-41.323 92.116-92.116s-41.324-92.116-92.116-92.116zm-62.068 24.11c-16.721 15.274-27.807 36.616-29.741 60.505h-88.399c-3.629-44.824-39.486-80.68-84.31-84.309v-32.386c39.887-2.005 75.648-19.916 101.067-47.496zm-342.619-203.669c0-73.154 59.515-132.67 132.669-132.67s132.67 59.515 132.67 132.669-59.516 132.67-132.67 132.67-132.669-59.515-132.669-132.669zm132.669 348.79c-42.521 0-77.115-34.594-77.115-77.116s34.594-77.116 77.115-77.116c42.522 0 77.116 34.594 77.116 77.116s-34.594 77.116-77.116 77.116zm272.018 0c-42.521 0-77.115-34.594-77.115-77.116s34.594-77.116 77.115-77.116c42.522 0 77.116 34.594 77.116 77.116s-34.594 77.116-77.116 77.116z"/><circle cx="127.49" cy="120.337" r="6.254"/><path d="m167.848 114.083c-3.454 0-6.254 2.8-6.254 6.254s2.8 6.254 6.254 6.254 6.254-2.8 6.254-6.254-2.8-6.254-6.254-6.254z"/><path d="m189.13 391.198h-19.336c-.43 0-.809-.275-.941-.685l-5.976-18.39c-2.182-6.712-8.15-11.048-15.207-11.048-7.058 0-13.026 4.336-15.208 11.048l-5.976 18.39c-.133.41-.512.685-.941.685h-19.336c-7.058 0-13.026 4.337-15.208 11.049-2.181 6.712.099 13.729 5.809 17.878l15.643 11.365c.349.253.493.698.36 1.108l-5.975 18.389c-2.181 6.711.099 13.729 5.808 17.877 5.71 4.149 13.089 4.15 18.799 0l15.643-11.366c.351-.253.816-.252 1.165 0l15.643 11.366c2.855 2.074 6.127 3.111 9.398 3.111 3.272 0 6.546-1.038 9.4-3.112 5.709-4.148 7.988-11.166 5.808-17.877l-5.975-18.39c-.133-.409.012-.854.359-1.107l15.645-11.366c5.709-4.148 7.988-11.166 5.808-17.877-2.183-6.711-8.151-11.048-15.209-11.048zm.583 16.791-15.644 11.366c-5.622 4.084-7.956 11.27-5.809 17.877l5.975 18.39c.083.256.223.684-.359 1.107-.585.424-.947.158-1.165 0l-15.642-11.366c-2.812-2.043-6.105-3.064-9.4-3.064-3.293 0-6.588 1.021-9.398 3.064l-15.643 11.365c-.218.157-.58.424-1.165 0-.582-.423-.442-.851-.359-1.107l5.975-18.389c2.147-6.608-.187-13.793-5.809-17.878l-15.643-11.365c-.218-.158-.582-.423-.36-1.107.223-.685.673-.685.942-.685h19.336c6.948 0 13.06-4.44 15.207-11.049l5.976-18.39c.083-.256.223-.684.942-.684s.858.428.941.684l5.976 18.39c2.147 6.608 8.259 11.049 15.207 11.049h19.336c.27 0 .72 0 .942.685.222.684-.142.949-.359 1.107z"/><path d="m465.338 402.36-51.275-31.917c-6.321-3.936-13.98-4.126-20.491-.51-6.509 3.616-10.396 10.22-10.396 17.666v63.833c0 7.446 3.887 14.05 10.396 17.666 3.104 1.724 6.469 2.583 9.827 2.583 3.683 0 7.357-1.034 10.664-3.092l51.275-31.917c5.968-3.714 9.529-10.127 9.529-17.156s-3.561-13.442-9.529-17.156zm-7.926 21.577-51.275 31.917c-2.348 1.461-4.476.579-5.281.131s-2.68-1.787-2.68-4.553v-63.833c0-2.766 1.874-4.105 2.68-4.553.473-.263 1.401-.676 2.563-.676.816 0 1.748.204 2.718.807l51.275 31.917c2.216 1.38 2.455 3.552 2.455 4.421s-.239 3.042-2.455 4.422z"/></svg>